<?xml version="1.0" encoding="utf-8" ?>
<svg baseProfile="full" height="100%" version="1.1" width="100%" xmlns="http://www.w3.org/2000/svg" xmlns:ev="http://www.w3.org/2001/xml-events" xmlns:xlink="http://www.w3.org/1999/xlink"><defs><radialGradient id="grad1"><stop offset="0%" stop-color="rgb(230, 25, 25)" /><stop offset="100%" stop-color="white" /></radialGradient><radialGradient id="grad2"><stop offset="0%" stop-color="rgb(50, 165, 80)" /><stop offset="100%" stop-color="white" /></radialGradient><radialGradient id="grad3"><stop offset="0%" stop-color="rgb(20, 50, 250)" /><stop offset="100%" stop-color="white" /></radialGradient><radialGradient id="grad4"><stop offset="0%" stop-color="rgb(0, 0, 0)" /><stop offset="100%" stop-color="white" /></radialGradient><radialGradient id="pat1"><stop offset="100%" stop-color="rgb(230, 25, 25)" /><stop offset="0%" stop-color="white" /></radialGradient><radialGradient id="pat2"><stop offset="100%" stop-color="rgb(50, 165, 80)" /><stop offset="0%" stop-color="white" /></radialGradient><radialGradient id="pat3"><stop offset="100%" stop-color="rgb(20, 50, 250)" /><stop offset="0%" stop-color="white" /></radialGradient><radialGradient id="pat4"><stop offset="100%" stop-color="rgb(0, 0, 0)" /><stop offset="0%" stop-color="white" /></radialGradient></defs><circle cx="111" cy="160" fill="url(#grad1)" r="30" stroke="rgb(200, 0, 0)" stroke-width="3" /><rect fill="none" height="261.0" stroke="rgb(10%,10%,16%)" width="183" x="20" y="30" /><polygon fill="url(#grad1)" points="297,190 308.0,190 308.0,171.0 327,171.0 327,160 327,149.0 308.0,149.0 308.0,130 297,130 286.0,130 286.0,149.0 267,149.0 267,160 267,171.0 286.0,171.0 286.0,190 297,190" stroke="rgb(200, 0, 0)" stroke-width="3" /><rect fill="none" height="261.0" stroke="rgb(10%,10%,16%)" width="183" x="206" y="30" /><polygon fill="url(#grad1)" points="483,190 513,190 513,160 513,130 483,130 453,130 453,160 453,190 483,190" stroke="rgb(200, 0, 0)" stroke-width="3" /><rect fill="none" height="261.0" stroke="rgb(10%,10%,16%)" width="183" x="392" y="30" /><circle cx="111" cy="380" fill="url(#grad1)" r="30" stroke="rgb(200, 0, 0)" stroke-width="3" /><circle cx="111" cy="467" fill="url(#grad1)" r="30" stroke="rgb(200, 0, 0)" stroke-width="3" /><rect fill="none" height="261.0" stroke="rgb(10%,10%,16%)" width="183" x="20" y="294.0" /><polygon fill="url(#grad1)" points="297,410 308.0,410 308.0,391.0 327,391.0 327,380 327,369.0 308.0,369.0 308.0,350 297,350 286.0,350 286.0,369.0 267,369.0 267,380 267,391.0 286.0,391.0 286.0,410 297,410" stroke="rgb(200, 0, 0)" stroke-width="3" /><polygon fill="url(#grad1)" points="297,497 308.0,497 308.0,478.0 327,478.0 327,467 327,456.0 308.0,456.0 308.0,437 297,437 286.0,437 286.0,456.0 267,456.0 267,467 267,478.0 286.0,478.0 286.0,497 297,497" stroke="rgb(200, 0, 0)" stroke-width="3" /><rect fill="none" height="261.0" stroke="rgb(10%,10%,16%)" width="183" x="206" y="294.0" /><polygon fill="url(#grad1)" points="483,410 513,410 513,380 513,350 483,350 453,350 453,380 453,410 483,410" stroke="rgb(200, 0, 0)" stroke-width="3" /><polygon fill="url(#grad1)" points="483,497 513,497 513,467 513,437 483,437 453,437 453,467 453,497 483,497" stroke="rgb(200, 0, 0)" stroke-width="3" /><rect fill="none" height="261.0" stroke="rgb(10%,10%,16%)" width="183" x="392" y="294.0" /><circle cx="111" cy="610" fill="url(#grad1)" r="30" stroke="rgb(200, 0, 0)" stroke-width="3" /><circle cx="111" cy="688" fill="url(#grad1)" r="30" stroke="rgb(200, 0, 0)" stroke-width="3" /><circle cx="111" cy="766" fill="url(#grad1)" r="30" stroke="rgb(200, 0, 0)" stroke-width="3" /><rect fill="none" height="261.0" stroke="rgb(10%,10%,16%)" width="183" x="20" y="558.0" /><polygon fill="url(#grad1)" points="297,640 308.0,640 308.0,621.0 327,621.0 327,610 327,599.0 308.0,599.0 308.0,580 297,580 286.0,580 286.0,599.0 267,599.0 267,610 267,621.0 286.0,621.0 286.0,640 297,640" stroke="rgb(200, 0, 0)" stroke-width="3" /><polygon fill="url(#grad1)" points="297,718 308.0,718 308.0,699.0 327,699.0 327,688 327,677.0 308.0,677.0 308.0,658 297,658 286.0,658 286.0,677.0 267,677.0 267,688 267,699.0 286.0,699.0 286.0,718 297,718" stroke="rgb(200, 0, 0)" stroke-width="3" /><polygon fill="url(#grad1)" points="297,796 308.0,796 308.0,777.0 327,777.0 327,766 327,755.0 308.0,755.0 308.0,736 297,736 286.0,736 286.0,755.0 267,755.0 267,766 267,777.0 286.0,777.0 286.0,796 297,796" stroke="rgb(200, 0, 0)" stroke-width="3" /><rect fill="none" height="261.0" stroke="rgb(10%,10%,16%)" width="183" x="206" y="558.0" /><polygon fill="url(#grad1)" points="483,640 513,640 513,610 513,580 483,580 453,580 453,610 453,640 483,640" stroke="rgb(200, 0, 0)" stroke-width="3" /><polygon fill="url(#grad1)" points="483,718 513,718 513,688 513,658 483,658 453,658 453,688 453,718 483,718" stroke="rgb(200, 0, 0)" stroke-width="3" /><polygon fill="url(#grad1)" points="483,796 513,796 513,766 513,736 483,736 453,736 453,766 453,796 483,796" stroke="rgb(200, 0, 0)" stroke-width="3" /><rect fill="none" height="261.0" stroke="rgb(10%,10%,16%)" width="183" x="392" y="558.0" /></svg>